#define logo_width 70
#define logo_height 39
static unsigned char logo_bits[] = {
   0x00, 0x00, 0x00, 0x00, 0x00, 0x00, 0x00, 0x00, 0x00, 0x00, 0x00, 0x00,
   0x00, 0x00, 0x00, 0x00, 0x00, 0x00, 0x00, 0x00, 0x00, 0x00, 0x00, 0x00,
   0x00, 0x00, 0x00, 0x00, 0x00, 0x00, 0x00, 0x00, 0x00, 0x00, 0x00, 0x00,
   0x00, 0x00, 0x00, 0x00, 0x00, 0x81, 0x07, 0x00, 0x00, 0x00, 0x00, 0x00,
   0x00, 0x40, 0xfa, 0x3d, 0x00, 0x00, 0x00, 0x00, 0x00, 0x00, 0xb0, 0x5e,
   0xbf, 0x01, 0x00, 0x00, 0x00, 0x00, 0x00, 0xd4, 0x7b, 0x60, 0x03, 0x00,
   0x00, 0x00, 0x00, 0x00, 0xef, 0x0f, 0x00, 0x05, 0x00, 0x00, 0x00, 0x07,
   0xc0, 0xfd, 0x03, 0x00, 0x02, 0x00, 0x00, 0xc2, 0xc8, 0x00, 0xbf, 0x01,
   0x00, 0x0c, 0x00, 0x00, 0x23, 0xc4, 0x00, 0x6f, 0x00, 0x00, 0x18, 0x00,
   0x00, 0x21, 0x04, 0x00, 0x37, 0x00, 0x00, 0x00, 0x00, 0x08, 0x31, 0x40,
   0x1c, 0x0d, 0x40, 0x04, 0x00, 0x00, 0x80, 0x11, 0x60, 0x1c, 0x03, 0x20,
   0x08, 0x10, 0x00, 0x80, 0x10, 0x22, 0x8e, 0x02, 0x10, 0x02, 0x00, 0x00,
   0x84, 0x10, 0x20, 0x8e, 0x01, 0x08, 0x05, 0x00, 0x00, 0x04, 0x00, 0x31,
   0x86, 0x00, 0x84, 0x05, 0x80, 0x00, 0x04, 0x00, 0x11, 0x46, 0x00, 0x46,
   0x00, 0x00, 0x00, 0xf8, 0xff, 0xfe, 0x3b, 0x00, 0xe3, 0x03, 0x00, 0x00,
   0x80, 0x00, 0xd0, 0x1d, 0x80, 0x31, 0x00, 0x50, 0x00, 0x80, 0x00, 0x14,
   0x20, 0x40, 0xfc, 0x01, 0x18, 0x00, 0x00, 0x00, 0x10, 0x21, 0x1b, 0x48,
   0x2b, 0x23, 0x01, 0x40, 0x00, 0x02, 0x21, 0x84, 0x14, 0x24, 0x01, 0x00,
   0x40, 0x00, 0x0c, 0x01, 0xbb, 0x06, 0x96, 0x49, 0x01, 0x00, 0x00, 0x1c,
   0x21, 0xb5, 0x02, 0xa8, 0x88, 0x09, 0x00, 0x02, 0x80, 0x15, 0x51, 0x03,
   0x9b, 0x88, 0x00, 0x80, 0x02, 0x80, 0x10, 0x5e, 0xa7, 0x6c, 0x89, 0x00,
   0x80, 0x00, 0xc0, 0x08, 0x98, 0x80, 0x60, 0x44, 0x06, 0x00, 0x04, 0x38,
   0xf7, 0xff, 0x3d, 0xff, 0x99, 0x01, 0x00, 0x11, 0x00, 0xfc, 0x0b, 0x00,
   0x08, 0x00, 0x00, 0x00, 0x22, 0x00, 0xef, 0x0a, 0x00, 0x00, 0x00, 0x00,
   0x00, 0x80, 0xb4, 0x38, 0x01, 0x00, 0x00, 0x00, 0x00, 0x00, 0x00, 0x85,
   0x0f, 0x00, 0x00, 0x00, 0x00, 0x00, 0x00, 0x10, 0x78, 0x00, 0x00, 0x00,
   0x00, 0x00, 0x00, 0x00, 0x00, 0x00, 0x00, 0x00, 0x00, 0x00, 0x00, 0x00,
   0x00, 0x00, 0x00, 0x00, 0x00, 0x00, 0x00, 0x00, 0x00, 0x00, 0x00, 0x00,
   0x00, 0x00, 0x00, 0x00, 0x00, 0x00, 0x00, 0x00, 0x00, 0x00, 0x00, 0x00,
   0x00, 0x00, 0x00 };
